<?xml version="1.0" encoding="UTF-8"?>
<svg xmlns="http://www.w3.org/2000/svg" viewBox="0 0 512 512" role="img" aria-label="Aero Pegasus 3-70A original 2D Beyblade style visual">
  <defs>
    <radialGradient id="bg" cx="50%" cy="50%" r="55%"><stop offset="0" stop-color="#1e293b"/><stop offset="0.62" stop-color="#07111f"/><stop offset="1" stop-color="#020617"/></radialGradient>
    <linearGradient id="bladeGrad" x1="0" y1="0" x2="1" y2="1"><stop offset="0" stop-color="#ff5b2e"/><stop offset="0.55" stop-color="#f43f5e"/><stop offset="1" stop-color="#38bdf8"/></linearGradient>
    <filter id="glow" x="-20%" y="-20%" width="140%" height="140%"><feGaussianBlur stdDeviation="8" result="blur"/><feMerge><feMergeNode in="blur"/><feMergeNode in="SourceGraphic"/></feMerge></filter>
  </defs>
  <rect width="512" height="512" rx="48" fill="url(#bg)"/>
  <circle cx="256" cy="256" r="194" fill="#020617" opacity="0.55" stroke="#f43f5e" stroke-width="3"/>
  <ellipse cx="256" cy="256" rx="142" ry="86" fill="none" stroke="#e2e8f0" stroke-width="8" opacity="0.42" transform="rotate(3 256 256)"/><ellipse cx="256" cy="256" rx="124" ry="76" fill="none" stroke="#f43f5e" stroke-width="8" opacity="0.36" transform="rotate(45 256 256)"/><ellipse cx="256" cy="256" rx="106" ry="66" fill="none" stroke="#e2e8f0" stroke-width="8" opacity="0.3" transform="rotate(87 256 256)"/><ellipse cx="256" cy="256" rx="88" ry="56" fill="none" stroke="#f43f5e" stroke-width="8" opacity="0.24" transform="rotate(129 256 256)"/>
  <g filter="url(#glow)">
    <path d="M256 94 L393.9188117034666 285.31554840530407 L317.7160456505521 293.0827413935239 Z" fill="url(#bladeGrad)" stroke="#020617" stroke-width="8" stroke-linejoin="round" transform="rotate(3 256 256)" opacity="0.96"/><path d="M256 94 L319.0711539125042 382.10721448095353 L265.4868703964899 327.3722585468626 Z" fill="url(#bladeGrad)" stroke="#020617" stroke-width="8" stroke-linejoin="round" transform="rotate(54.42857142857143 256 256)" opacity="0.96"/><path d="M256 94 L196.7296308083513 383.93757593406895 L206.11388823698186 307.9170092856634 Z" fill="url(#bladeGrad)" stroke="#020617" stroke-width="8" stroke-linejoin="round" transform="rotate(105.85714285714286 256 256)" opacity="0.96"/><path d="M256 94 L119.01990460070567 289.42833325788513 L184.30616572625647 249.36719311837007 Z" fill="url(#bladeGrad)" stroke="#020617" stroke-width="8" stroke-linejoin="round" transform="rotate(157.28571428571428 256 256)" opacity="0.96"/><path d="M256 94 L144.45898411345587 169.74687382478413 L216.48536271135967 195.81201581754715 Z" fill="url(#bladeGrad)" stroke="#020617" stroke-width="8" stroke-linejoin="round" transform="rotate(208.71428571428572 256 256)" opacity="0.96"/><path d="M256 94 L253.89072361084786 115.01577764475144 L278.41988752651537 187.57961821724172 Z" fill="url(#bladeGrad)" stroke="#020617" stroke-width="8" stroke-linejoin="round" transform="rotate(260.14285714285717 256 256)" opacity="0.96"/><path d="M256 94 L364.91079125066847 166.4486764522527 L323.4717797518446 230.86916362079106 Z" fill="url(#bladeGrad)" stroke="#020617" stroke-width="8" stroke-linejoin="round" transform="rotate(311.57142857142856 256 256)" opacity="0.96"/>
    <circle cx="256" cy="256" r="154" fill="none" stroke="#e2e8f0" stroke-width="14" opacity="0.6" stroke-dasharray="44 20" transform="rotate(93 256 256)"/>
    <rect x="250" y="61" width="12" height="38" rx="6" fill="#38bdf8" opacity="0.75" transform="rotate(9 256 256)"/><rect x="250" y="61" width="12" height="38" rx="6" fill="#0f172a" opacity="0.75" transform="rotate(39 256 256)"/><rect x="250" y="61" width="12" height="38" rx="6" fill="#0f172a" opacity="0.75" transform="rotate(69 256 256)"/><rect x="250" y="61" width="12" height="38" rx="6" fill="#38bdf8" opacity="0.75" transform="rotate(99 256 256)"/><rect x="250" y="61" width="12" height="38" rx="6" fill="#0f172a" opacity="0.75" transform="rotate(129 256 256)"/><rect x="250" y="61" width="12" height="38" rx="6" fill="#0f172a" opacity="0.75" transform="rotate(159 256 256)"/><rect x="250" y="61" width="12" height="38" rx="6" fill="#38bdf8" opacity="0.75" transform="rotate(189 256 256)"/><rect x="250" y="61" width="12" height="38" rx="6" fill="#0f172a" opacity="0.75" transform="rotate(219 256 256)"/><rect x="250" y="61" width="12" height="38" rx="6" fill="#0f172a" opacity="0.75" transform="rotate(249 256 256)"/><rect x="250" y="61" width="12" height="38" rx="6" fill="#38bdf8" opacity="0.75" transform="rotate(279 256 256)"/><rect x="250" y="61" width="12" height="38" rx="6" fill="#0f172a" opacity="0.75" transform="rotate(309 256 256)"/><rect x="250" y="61" width="12" height="38" rx="6" fill="#0f172a" opacity="0.75" transform="rotate(339 256 256)"/>
    <circle cx="256" cy="256" r="118" fill="#e5e7eb" stroke="#020617" stroke-width="12"/>
    <circle cx="256" cy="256" r="86" fill="url(#bladeGrad)" stroke="#f8fafc" stroke-width="8"/>
    <circle cx="256" cy="256" r="53" fill="#020617" stroke="#e2e8f0" stroke-width="8"/>
    <circle cx="256" cy="256" r="24" fill="#38bdf8" stroke="#020617" stroke-width="8"/>
  </g>
  <text x="256" y="264" text-anchor="middle" dominant-baseline="middle" font-family="Arial Black, Arial, sans-serif" font-size="30" fill="#f8fafc" stroke="#020617" stroke-width="3" paint-order="stroke">AP</text>
  <text x="256" y="458" text-anchor="middle" font-family="Arial, sans-serif" font-size="20" font-weight="700" fill="#cbd5e1">UX-00</text>
</svg>