<?xml version="1.0" encoding="UTF-8"?>
<svg xmlns="http://www.w3.org/2000/svg" viewBox="0 0 512 512" role="img" aria-label="Knight Lance 4-80HN original 2D Beyblade style visual">
  <defs>
    <radialGradient id="bg" cx="50%" cy="50%" r="55%"><stop offset="0" stop-color="#1e293b"/><stop offset="0.62" stop-color="#07111f"/><stop offset="1" stop-color="#020617"/></radialGradient>
    <linearGradient id="bladeGrad" x1="0" y1="0" x2="1" y2="1"><stop offset="0" stop-color="#cbd5e1"/><stop offset="0.55" stop-color="#60a5fa"/><stop offset="1" stop-color="#1d4ed8"/></linearGradient>
    <filter id="glow" x="-20%" y="-20%" width="140%" height="140%"><feGaussianBlur stdDeviation="8" result="blur"/><feMerge><feMergeNode in="blur"/><feMergeNode in="SourceGraphic"/></feMerge></filter>
  </defs>
  <rect width="512" height="512" rx="48" fill="url(#bg)"/>
  <circle cx="256" cy="256" r="194" fill="#020617" opacity="0.55" stroke="#60a5fa" stroke-width="3"/>
  <ellipse cx="256" cy="256" rx="142" ry="86" fill="none" stroke="#8b5cf6" stroke-width="8" opacity="0.42" transform="rotate(41 256 256)"/><ellipse cx="256" cy="256" rx="124" ry="76" fill="none" stroke="#60a5fa" stroke-width="8" opacity="0.36" transform="rotate(83 256 256)"/><ellipse cx="256" cy="256" rx="106" ry="66" fill="none" stroke="#8b5cf6" stroke-width="8" opacity="0.3" transform="rotate(125 256 256)"/><ellipse cx="256" cy="256" rx="88" ry="56" fill="none" stroke="#60a5fa" stroke-width="8" opacity="0.24" transform="rotate(167 256 256)"/>
  <g filter="url(#glow)">
    <path d="M256 94 L384.87067948334163 310.7023579884983 L309.50642743437237 304.1774036578378 Z" fill="url(#bladeGrad)" stroke="#020617" stroke-width="8" stroke-linejoin="round" transform="rotate(14 256 256)" opacity="0.96"/><path d="M256 94 L273.06170807672066 394.9564612297851 L241.03035826112134 326.426627252834 Z" fill="url(#bladeGrad)" stroke="#020617" stroke-width="8" stroke-linejoin="round" transform="rotate(74 256 256)" opacity="0.96"/><path d="M256 94 L144.19102859337897 340.25410324128677 L187.52393082674894 278.24922359499624 Z" fill="url(#bladeGrad)" stroke="#020617" stroke-width="8" stroke-linejoin="round" transform="rotate(134 256 256)" opacity="0.96"/><path d="M256 94 L127.12932051665834 201.2976420115017 L202.49357256562763 207.8225963421622 Z" fill="url(#bladeGrad)" stroke="#020617" stroke-width="8" stroke-linejoin="round" transform="rotate(194 256 256)" opacity="0.96"/><path d="M256 94 L238.9382919232794 117.0435387702149 L270.96964173887864 185.573372747166 Z" fill="url(#bladeGrad)" stroke="#020617" stroke-width="8" stroke-linejoin="round" transform="rotate(254 256 256)" opacity="0.96"/><path d="M256 94 L367.808971406621 171.74589675871323 L324.47606917325106 233.75077640500376 Z" fill="url(#bladeGrad)" stroke="#020617" stroke-width="8" stroke-linejoin="round" transform="rotate(314 256 256)" opacity="0.96"/>
    <circle cx="256" cy="256" r="154" fill="none" stroke="#8b5cf6" stroke-width="14" opacity="0.6" stroke-dasharray="44 20" transform="rotate(356 256 256)"/>
    <rect x="250" y="72" width="12" height="38" rx="6" fill="#1d4ed8" opacity="0.75" transform="rotate(8 256 256)"/><rect x="250" y="72" width="12" height="38" rx="6" fill="#0f172a" opacity="0.75" transform="rotate(38 256 256)"/><rect x="250" y="72" width="12" height="38" rx="6" fill="#0f172a" opacity="0.75" transform="rotate(68 256 256)"/><rect x="250" y="72" width="12" height="38" rx="6" fill="#1d4ed8" opacity="0.75" transform="rotate(98 256 256)"/><rect x="250" y="72" width="12" height="38" rx="6" fill="#0f172a" opacity="0.75" transform="rotate(128 256 256)"/><rect x="250" y="72" width="12" height="38" rx="6" fill="#0f172a" opacity="0.75" transform="rotate(158 256 256)"/><rect x="250" y="72" width="12" height="38" rx="6" fill="#1d4ed8" opacity="0.75" transform="rotate(188 256 256)"/><rect x="250" y="72" width="12" height="38" rx="6" fill="#0f172a" opacity="0.75" transform="rotate(218 256 256)"/><rect x="250" y="72" width="12" height="38" rx="6" fill="#0f172a" opacity="0.75" transform="rotate(248 256 256)"/><rect x="250" y="72" width="12" height="38" rx="6" fill="#1d4ed8" opacity="0.75" transform="rotate(278 256 256)"/><rect x="250" y="72" width="12" height="38" rx="6" fill="#0f172a" opacity="0.75" transform="rotate(308 256 256)"/><rect x="250" y="72" width="12" height="38" rx="6" fill="#0f172a" opacity="0.75" transform="rotate(338 256 256)"/>
    <circle cx="256" cy="256" r="118" fill="#e5e7eb" stroke="#020617" stroke-width="12"/>
    <circle cx="256" cy="256" r="86" fill="url(#bladeGrad)" stroke="#f8fafc" stroke-width="8"/>
    <circle cx="256" cy="256" r="52" fill="#020617" stroke="#8b5cf6" stroke-width="8"/>
    <circle cx="256" cy="256" r="24" fill="#1d4ed8" stroke="#020617" stroke-width="8"/>
  </g>
  <text x="256" y="264" text-anchor="middle" dominant-baseline="middle" font-family="Arial Black, Arial, sans-serif" font-size="30" fill="#f8fafc" stroke="#020617" stroke-width="3" paint-order="stroke">KL</text>
  <text x="256" y="458" text-anchor="middle" font-family="Arial, sans-serif" font-size="20" font-weight="700" fill="#cbd5e1">BX-13</text>
</svg>