<?xml version="1.0" encoding="UTF-8"?>
<svg xmlns="http://www.w3.org/2000/svg" viewBox="0 0 512 512" role="img" aria-label="Scarlet Garuda 4-70TP original 2D Beyblade style visual">
  <defs>
    <radialGradient id="bg" cx="50%" cy="50%" r="55%"><stop offset="0" stop-color="#1e293b"/><stop offset="0.62" stop-color="#07111f"/><stop offset="1" stop-color="#020617"/></radialGradient>
    <linearGradient id="bladeGrad" x1="0" y1="0" x2="1" y2="1"><stop offset="0" stop-color="#a78bfa"/><stop offset="0.55" stop-color="#38bdf8"/><stop offset="1" stop-color="#f8fafc"/></linearGradient>
    <filter id="glow" x="-20%" y="-20%" width="140%" height="140%"><feGaussianBlur stdDeviation="8" result="blur"/><feMerge><feMergeNode in="blur"/><feMergeNode in="SourceGraphic"/></feMerge></filter>
  </defs>
  <rect width="512" height="512" rx="48" fill="url(#bg)"/>
  <circle cx="256" cy="256" r="194" fill="#020617" opacity="0.55" stroke="#38bdf8" stroke-width="3"/>
  <ellipse cx="256" cy="256" rx="142" ry="86" fill="none" stroke="#facc15" stroke-width="8" opacity="0.42" transform="rotate(9 256 256)"/><ellipse cx="256" cy="256" rx="124" ry="76" fill="none" stroke="#38bdf8" stroke-width="8" opacity="0.36" transform="rotate(51 256 256)"/><ellipse cx="256" cy="256" rx="106" ry="66" fill="none" stroke="#facc15" stroke-width="8" opacity="0.3" transform="rotate(93 256 256)"/><ellipse cx="256" cy="256" rx="88" ry="56" fill="none" stroke="#38bdf8" stroke-width="8" opacity="0.24" transform="rotate(135 256 256)"/>
  <g filter="url(#glow)">
    <path d="M256 94 L392.300991002129 277.5879561755519 L319.57222668584274 289.8019525205841 Z" fill="url(#bladeGrad)" stroke="#020617" stroke-width="8" stroke-linejoin="round" transform="rotate(0 256 256)" opacity="0.96"/><path d="M256 94 L337.1143648163613 367.64434522374273 L277.05076274003704 324.85394242933853 Z" fill="url(#bladeGrad)" stroke="#020617" stroke-width="8" stroke-linejoin="round" transform="rotate(45 256 256)" opacity="0.96"/><path d="M256 94 L234.41204382444812 392.30099100212897 L222.1980474794159 319.57222668584274 Z" fill="url(#bladeGrad)" stroke="#020617" stroke-width="8" stroke-linejoin="round" transform="rotate(90 256 256)" opacity="0.96"/><path d="M256 94 L144.35565477625727 337.11436481636133 L187.14605757066147 277.05076274003704 Z" fill="url(#bladeGrad)" stroke="#020617" stroke-width="8" stroke-linejoin="round" transform="rotate(135 256 256)" opacity="0.96"/><path d="M256 94 L119.69900899787098 234.41204382444815 L192.42777331415726 222.19804747941586 Z" fill="url(#bladeGrad)" stroke="#020617" stroke-width="8" stroke-linejoin="round" transform="rotate(180 256 256)" opacity="0.96"/><path d="M256 94 L174.8856351836387 144.35565477625727 L234.94923725996293 187.14605757066147 Z" fill="url(#bladeGrad)" stroke="#020617" stroke-width="8" stroke-linejoin="round" transform="rotate(225 256 256)" opacity="0.96"/><path d="M256 94 L277.5879561755518 119.69900899787098 L289.8019525205841 192.42777331415726 Z" fill="url(#bladeGrad)" stroke="#020617" stroke-width="8" stroke-linejoin="round" transform="rotate(270 256 256)" opacity="0.96"/><path d="M256 94 L367.64434522374273 174.88563518363867 L324.8539424293386 234.94923725996298 Z" fill="url(#bladeGrad)" stroke="#020617" stroke-width="8" stroke-linejoin="round" transform="rotate(315 256 256)" opacity="0.96"/>
    <circle cx="256" cy="256" r="154" fill="none" stroke="#facc15" stroke-width="14" opacity="0.6" stroke-dasharray="44 20" transform="rotate(234 256 256)"/>
    <rect x="250" y="58" width="12" height="38" rx="6" fill="#f8fafc" opacity="0.75" transform="rotate(6 256 256)"/><rect x="250" y="58" width="12" height="38" rx="6" fill="#0f172a" opacity="0.75" transform="rotate(36 256 256)"/><rect x="250" y="58" width="12" height="38" rx="6" fill="#0f172a" opacity="0.75" transform="rotate(66 256 256)"/><rect x="250" y="58" width="12" height="38" rx="6" fill="#f8fafc" opacity="0.75" transform="rotate(96 256 256)"/><rect x="250" y="58" width="12" height="38" rx="6" fill="#0f172a" opacity="0.75" transform="rotate(126 256 256)"/><rect x="250" y="58" width="12" height="38" rx="6" fill="#0f172a" opacity="0.75" transform="rotate(156 256 256)"/><rect x="250" y="58" width="12" height="38" rx="6" fill="#f8fafc" opacity="0.75" transform="rotate(186 256 256)"/><rect x="250" y="58" width="12" height="38" rx="6" fill="#0f172a" opacity="0.75" transform="rotate(216 256 256)"/><rect x="250" y="58" width="12" height="38" rx="6" fill="#0f172a" opacity="0.75" transform="rotate(246 256 256)"/><rect x="250" y="58" width="12" height="38" rx="6" fill="#f8fafc" opacity="0.75" transform="rotate(276 256 256)"/><rect x="250" y="58" width="12" height="38" rx="6" fill="#0f172a" opacity="0.75" transform="rotate(306 256 256)"/><rect x="250" y="58" width="12" height="38" rx="6" fill="#0f172a" opacity="0.75" transform="rotate(336 256 256)"/>
    <circle cx="256" cy="256" r="118" fill="#e5e7eb" stroke="#020617" stroke-width="12"/>
    <circle cx="256" cy="256" r="86" fill="url(#bladeGrad)" stroke="#f8fafc" stroke-width="8"/>
    <circle cx="256" cy="256" r="50" fill="#020617" stroke="#facc15" stroke-width="8"/>
    <circle cx="256" cy="256" r="24" fill="#f8fafc" stroke="#020617" stroke-width="8"/>
  </g>
  <text x="256" y="264" text-anchor="middle" dominant-baseline="middle" font-family="Arial Black, Arial, sans-serif" font-size="30" fill="#f8fafc" stroke="#020617" stroke-width="3" paint-order="stroke">SG</text>
  <text x="256" y="458" text-anchor="middle" font-family="Arial, sans-serif" font-size="20" font-weight="700" fill="#cbd5e1">G1673</text>
</svg>