<?xml version="1.0" encoding="UTF-8"?>
<svg xmlns="http://www.w3.org/2000/svg" viewBox="0 0 512 512" role="img" aria-label="Tricera Press M-85BS original 2D Beyblade style visual">
  <defs>
    <radialGradient id="bg" cx="50%" cy="50%" r="55%"><stop offset="0" stop-color="#1e293b"/><stop offset="0.62" stop-color="#07111f"/><stop offset="1" stop-color="#020617"/></radialGradient>
    <linearGradient id="bladeGrad" x1="0" y1="0" x2="1" y2="1"><stop offset="0" stop-color="#cbd5e1"/><stop offset="0.55" stop-color="#60a5fa"/><stop offset="1" stop-color="#1d4ed8"/></linearGradient>
    <filter id="glow" x="-20%" y="-20%" width="140%" height="140%"><feGaussianBlur stdDeviation="8" result="blur"/><feMerge><feMergeNode in="blur"/><feMergeNode in="SourceGraphic"/></feMerge></filter>
  </defs>
  <rect width="512" height="512" rx="48" fill="url(#bg)"/>
  <circle cx="256" cy="256" r="194" fill="#020617" opacity="0.55" stroke="#60a5fa" stroke-width="3"/>
  <ellipse cx="256" cy="256" rx="142" ry="86" fill="none" stroke="#8b5cf6" stroke-width="8" opacity="0.42" transform="rotate(26 256 256)"/><ellipse cx="256" cy="256" rx="124" ry="76" fill="none" stroke="#60a5fa" stroke-width="8" opacity="0.36" transform="rotate(68 256 256)"/><ellipse cx="256" cy="256" rx="106" ry="66" fill="none" stroke="#8b5cf6" stroke-width="8" opacity="0.3" transform="rotate(110 256 256)"/><ellipse cx="256" cy="256" rx="88" ry="56" fill="none" stroke="#60a5fa" stroke-width="8" opacity="0.24" transform="rotate(152 256 256)"/>
  <g filter="url(#glow)">
    <path d="M256 94 L372.6691802274903 291.66934797617387 L314.24922359499624 298.32053816505805 Z" fill="url(#bladeGrad)" stroke="#020617" stroke-width="8" stroke-linejoin="round" transform="rotate(8 256 256)" opacity="0.96"/><path d="M256 94 L313.27553065987865 363.7196063287891 L267.2632814828966 327.1135605228499 Z" fill="url(#bladeGrad)" stroke="#020617" stroke-width="8" stroke-linejoin="round" transform="rotate(53 256 256)" opacity="0.96"/><path d="M256 94 L220.33065202382613 372.6691802274903 L213.67946183494195 314.24922359499624 Z" fill="url(#bladeGrad)" stroke="#020617" stroke-width="8" stroke-linejoin="round" transform="rotate(98 256 256)" opacity="0.96"/><path d="M256 94 L148.28039367121093 313.2755306598787 L184.88643947715008 267.2632814828966 Z" fill="url(#bladeGrad)" stroke="#020617" stroke-width="8" stroke-linejoin="round" transform="rotate(143 256 256)" opacity="0.96"/><path d="M256 94 L139.33081977250967 220.33065202382616 L197.7507764050038 213.67946183494195 Z" fill="url(#bladeGrad)" stroke="#020617" stroke-width="8" stroke-linejoin="round" transform="rotate(188 256 256)" opacity="0.96"/><path d="M256 94 L198.72446934012135 148.2803936712109 L244.73671851710336 184.88643947715008 Z" fill="url(#bladeGrad)" stroke="#020617" stroke-width="8" stroke-linejoin="round" transform="rotate(233 256 256)" opacity="0.96"/><path d="M256 94 L291.66934797617387 139.33081977250967 L298.32053816505805 197.75077640500376 Z" fill="url(#bladeGrad)" stroke="#020617" stroke-width="8" stroke-linejoin="round" transform="rotate(278 256 256)" opacity="0.96"/><path d="M256 94 L363.7196063287891 198.72446934012132 L327.1135605228499 244.73671851710336 Z" fill="url(#bladeGrad)" stroke="#020617" stroke-width="8" stroke-linejoin="round" transform="rotate(323 256 256)" opacity="0.96"/>
    <circle cx="256" cy="256" r="154" fill="none" stroke="#8b5cf6" stroke-width="14" opacity="0.6" stroke-dasharray="44 20" transform="rotate(26 256 256)"/>
    <rect x="250" y="66" width="12" height="38" rx="6" fill="#1d4ed8" opacity="0.75" transform="rotate(2 256 256)"/><rect x="250" y="66" width="12" height="38" rx="6" fill="#0f172a" opacity="0.75" transform="rotate(32 256 256)"/><rect x="250" y="66" width="12" height="38" rx="6" fill="#0f172a" opacity="0.75" transform="rotate(62 256 256)"/><rect x="250" y="66" width="12" height="38" rx="6" fill="#1d4ed8" opacity="0.75" transform="rotate(92 256 256)"/><rect x="250" y="66" width="12" height="38" rx="6" fill="#0f172a" opacity="0.75" transform="rotate(122 256 256)"/><rect x="250" y="66" width="12" height="38" rx="6" fill="#0f172a" opacity="0.75" transform="rotate(152 256 256)"/><rect x="250" y="66" width="12" height="38" rx="6" fill="#1d4ed8" opacity="0.75" transform="rotate(182 256 256)"/><rect x="250" y="66" width="12" height="38" rx="6" fill="#0f172a" opacity="0.75" transform="rotate(212 256 256)"/><rect x="250" y="66" width="12" height="38" rx="6" fill="#0f172a" opacity="0.75" transform="rotate(242 256 256)"/><rect x="250" y="66" width="12" height="38" rx="6" fill="#1d4ed8" opacity="0.75" transform="rotate(272 256 256)"/><rect x="250" y="66" width="12" height="38" rx="6" fill="#0f172a" opacity="0.75" transform="rotate(302 256 256)"/><rect x="250" y="66" width="12" height="38" rx="6" fill="#0f172a" opacity="0.75" transform="rotate(332 256 256)"/>
    <circle cx="256" cy="256" r="118" fill="#e5e7eb" stroke="#020617" stroke-width="12"/>
    <circle cx="256" cy="256" r="86" fill="url(#bladeGrad)" stroke="#f8fafc" stroke-width="8"/>
    <circle cx="256" cy="256" r="46" fill="#020617" stroke="#8b5cf6" stroke-width="8"/>
    <circle cx="256" cy="256" r="24" fill="#1d4ed8" stroke="#020617" stroke-width="8"/>
  </g>
  <text x="256" y="264" text-anchor="middle" dominant-baseline="middle" font-family="Arial Black, Arial, sans-serif" font-size="30" fill="#f8fafc" stroke="#020617" stroke-width="3" paint-order="stroke">TP</text>
  <text x="256" y="458" text-anchor="middle" font-family="Arial, sans-serif" font-size="20" font-weight="700" fill="#cbd5e1">BX-44</text>
</svg>