<?xml version="1.0" encoding="UTF-8"?>
<svg xmlns="http://www.w3.org/2000/svg" viewBox="0 0 512 512" role="img" aria-label="Weiss Tiger 3-60U original 2D Beyblade style visual">
  <defs>
    <radialGradient id="bg" cx="50%" cy="50%" r="55%"><stop offset="0" stop-color="#1e293b"/><stop offset="0.62" stop-color="#07111f"/><stop offset="1" stop-color="#020617"/></radialGradient>
    <linearGradient id="bladeGrad" x1="0" y1="0" x2="1" y2="1"><stop offset="0" stop-color="#a78bfa"/><stop offset="0.55" stop-color="#38bdf8"/><stop offset="1" stop-color="#f8fafc"/></linearGradient>
    <filter id="glow" x="-20%" y="-20%" width="140%" height="140%"><feGaussianBlur stdDeviation="8" result="blur"/><feMerge><feMergeNode in="blur"/><feMergeNode in="SourceGraphic"/></feMerge></filter>
  </defs>
  <rect width="512" height="512" rx="48" fill="url(#bg)"/>
  <circle cx="256" cy="256" r="194" fill="#020617" opacity="0.55" stroke="#38bdf8" stroke-width="3"/>
  <ellipse cx="256" cy="256" rx="142" ry="86" fill="none" stroke="#e2e8f0" stroke-width="8" opacity="0.42" transform="rotate(23 256 256)"/><ellipse cx="256" cy="256" rx="124" ry="76" fill="none" stroke="#38bdf8" stroke-width="8" opacity="0.36" transform="rotate(65 256 256)"/><ellipse cx="256" cy="256" rx="106" ry="66" fill="none" stroke="#e2e8f0" stroke-width="8" opacity="0.3" transform="rotate(107 256 256)"/><ellipse cx="256" cy="256" rx="88" ry="56" fill="none" stroke="#38bdf8" stroke-width="8" opacity="0.24" transform="rotate(149 256 256)"/>
  <g filter="url(#glow)">
    <path d="M256 94 L379.347650362627 308.3579712175627 L309.50642743437237 304.1774036578378 Z" fill="url(#bladeGrad)" stroke="#020617" stroke-width="8" stroke-linejoin="round" transform="rotate(14 256 256)" opacity="0.96"/><path d="M256 94 L306.1972835177322 380.2426365119495 L259.768188849492 327.9013265023293 Z" fill="url(#bladeGrad)" stroke="#020617" stroke-width="8" stroke-linejoin="round" transform="rotate(59 256 256)" opacity="0.96"/><path d="M256 94 L203.64202878243734 379.347650362627 L207.8225963421622 309.50642743437237 Z" fill="url(#bladeGrad)" stroke="#020617" stroke-width="8" stroke-linejoin="round" transform="rotate(104 256 256)" opacity="0.96"/><path d="M256 94 L131.7573634880505 306.1972835177322 L184.0986734976707 259.76818884949193 Z" fill="url(#bladeGrad)" stroke="#020617" stroke-width="8" stroke-linejoin="round" transform="rotate(149 256 256)" opacity="0.96"/><path d="M256 94 L132.652349637373 203.64202878243734 L202.49357256562763 207.8225963421622 Z" fill="url(#bladeGrad)" stroke="#020617" stroke-width="8" stroke-linejoin="round" transform="rotate(194 256 256)" opacity="0.96"/><path d="M256 94 L205.80271648226775 131.7573634880505 L252.231811150508 184.0986734976707 Z" fill="url(#bladeGrad)" stroke="#020617" stroke-width="8" stroke-linejoin="round" transform="rotate(239 256 256)" opacity="0.96"/><path d="M256 94 L308.35797121756264 132.652349637373 L304.1774036578378 202.49357256562757 Z" fill="url(#bladeGrad)" stroke="#020617" stroke-width="8" stroke-linejoin="round" transform="rotate(284 256 256)" opacity="0.96"/><path d="M256 94 L380.2426365119495 205.80271648226775 L327.9013265023293 252.231811150508 Z" fill="url(#bladeGrad)" stroke="#020617" stroke-width="8" stroke-linejoin="round" transform="rotate(329 256 256)" opacity="0.96"/>
    <circle cx="256" cy="256" r="154" fill="none" stroke="#e2e8f0" stroke-width="14" opacity="0.6" stroke-dasharray="44 20" transform="rotate(158 256 256)"/>
    <rect x="250" y="72" width="12" height="38" rx="6" fill="#f8fafc" opacity="0.75" transform="rotate(2 256 256)"/><rect x="250" y="72" width="12" height="38" rx="6" fill="#0f172a" opacity="0.75" transform="rotate(32 256 256)"/><rect x="250" y="72" width="12" height="38" rx="6" fill="#0f172a" opacity="0.75" transform="rotate(62 256 256)"/><rect x="250" y="72" width="12" height="38" rx="6" fill="#f8fafc" opacity="0.75" transform="rotate(92 256 256)"/><rect x="250" y="72" width="12" height="38" rx="6" fill="#0f172a" opacity="0.75" transform="rotate(122 256 256)"/><rect x="250" y="72" width="12" height="38" rx="6" fill="#0f172a" opacity="0.75" transform="rotate(152 256 256)"/><rect x="250" y="72" width="12" height="38" rx="6" fill="#f8fafc" opacity="0.75" transform="rotate(182 256 256)"/><rect x="250" y="72" width="12" height="38" rx="6" fill="#0f172a" opacity="0.75" transform="rotate(212 256 256)"/><rect x="250" y="72" width="12" height="38" rx="6" fill="#0f172a" opacity="0.75" transform="rotate(242 256 256)"/><rect x="250" y="72" width="12" height="38" rx="6" fill="#f8fafc" opacity="0.75" transform="rotate(272 256 256)"/><rect x="250" y="72" width="12" height="38" rx="6" fill="#0f172a" opacity="0.75" transform="rotate(302 256 256)"/><rect x="250" y="72" width="12" height="38" rx="6" fill="#0f172a" opacity="0.75" transform="rotate(332 256 256)"/>
    <circle cx="256" cy="256" r="118" fill="#e5e7eb" stroke="#020617" stroke-width="12"/>
    <circle cx="256" cy="256" r="86" fill="url(#bladeGrad)" stroke="#f8fafc" stroke-width="8"/>
    <circle cx="256" cy="256" r="46" fill="#020617" stroke="#e2e8f0" stroke-width="8"/>
    <circle cx="256" cy="256" r="24" fill="#f8fafc" stroke="#020617" stroke-width="8"/>
  </g>
  <text x="256" y="264" text-anchor="middle" dominant-baseline="middle" font-family="Arial Black, Arial, sans-serif" font-size="30" fill="#f8fafc" stroke="#020617" stroke-width="3" paint-order="stroke">WT</text>
  <text x="256" y="458" text-anchor="middle" font-family="Arial, sans-serif" font-size="20" font-weight="700" fill="#cbd5e1">BX-33</text>
</svg>